<svg width="12" height="12" viewBox="0 0 12 12" fill="none" xmlns="http://www.w3.org/2000/svg">
<g id="Frame 159">
<path id="Arrow 1" d="M9.14062 6.73174C8.7365 6.73174 8.40889 6.40413 8.40889 6C8.40889 5.59587 8.7365 5.26826 9.14062 5.26826V6.73174ZM9.65814 5.48258C9.9439 5.76834 9.9439 6.23166 9.65814 6.51742L5.00139 11.1742C4.71563 11.4599 4.25232 11.4599 3.96656 11.1742C3.6808 10.8884 3.6808 10.4251 3.96656 10.1393L8.10589 6L3.96656 1.86067C3.6808 1.5749 3.6808 1.11159 3.96656 0.825832C4.25232 0.540071 4.71563 0.540071 5.00139 0.825832L9.65814 5.48258ZM9.14062 5.26826H9.14072V6.73174H9.14062V5.26826Z" fill="#8E98A9"/>
</g>
</svg>
