<svg width="16" height="16" viewBox="0 0 16 16" fill="none" xmlns="http://www.w3.org/2000/svg">
<g id="Frame 159">
<path id="Arrow 1" d="M4 9C4.55228 9 5 8.55228 5 8C5 7.44772 4.55228 7 4 7V9ZM3.29279 7.29289C2.90227 7.68342 2.90227 8.31658 3.29279 8.70711L9.65675 15.0711C10.0473 15.4616 10.6804 15.4616 11.071 15.0711C11.4615 14.6805 11.4615 14.0474 11.071 13.6569L5.41411 8L11.071 2.34315C11.4615 1.95262 11.4615 1.31946 11.071 0.928932C10.6804 0.538408 10.0473 0.538408 9.65675 0.928932L3.29279 7.29289ZM4 7H3.9999V9H4V7Z" fill="#1D3152"/>
</g>
</svg>
