<svg width="20" height="20" viewBox="0 0 20 20" fill="none" xmlns="http://www.w3.org/2000/svg">
<g id="mingcute:github-line">
<g id="Group">
<path id="Vector" d="M5.2614 5.14696C5.05307 4.6153 5.0614 4.0078 5.1539 3.45196C5.79053 3.64326 6.38854 3.94509 6.92057 4.34363C7.1539 4.52196 7.45973 4.57946 7.74473 4.49363C8.47593 4.27432 9.23552 4.16424 9.9989 4.16696C10.7997 4.16696 11.5606 4.28363 12.2514 4.4928C12.5364 4.57946 12.8422 4.52113 13.0747 4.3428C13.6065 3.94434 14.2042 3.64252 14.8406 3.45113C14.9331 4.00696 14.9406 4.61446 14.7339 5.1453C14.6089 5.4653 14.6714 5.83363 14.9072 6.0953C15.5106 6.76446 15.8322 7.53363 15.8322 8.33363C15.8322 10.0953 14.1906 11.8228 11.5539 12.3486C10.8939 12.4803 10.6364 13.3111 11.1414 13.787C11.4656 14.092 11.6656 14.522 11.6656 15.0003V17.5003C11.6656 17.7213 11.7534 17.9333 11.9096 18.0896C12.0659 18.2458 12.2779 18.3336 12.4989 18.3336C12.7199 18.3336 12.9319 18.2458 13.0882 18.0896C13.2444 17.9333 13.3322 17.7213 13.3322 17.5003V15.0003C13.3322 14.5253 13.2322 14.0736 13.0539 13.6645C15.5681 12.792 17.4989 10.8278 17.4989 8.33363C17.4989 7.21113 17.0956 6.17946 16.4264 5.3153C16.6014 4.63196 16.5856 3.94363 16.5189 3.4153C16.4597 2.94196 16.3772 2.32196 16.0439 1.95196C15.5481 1.4028 14.7272 1.72613 14.1439 1.9253C13.5178 2.13631 12.9224 2.42912 12.3731 2.79613C11.5973 2.59786 10.7996 2.49846 9.9989 2.5003C9.17057 2.5003 8.3714 2.60446 7.62307 2.79696C7.07372 2.42996 6.47829 2.13715 5.85223 1.92613C5.2689 1.72613 4.44723 1.4028 3.9514 1.95196C3.6114 2.32863 3.54057 2.89946 3.47973 3.38446L3.47557 3.41613C3.4089 3.9453 3.3939 4.63446 3.5689 5.31863C2.90223 6.18196 2.4989 7.21196 2.4989 8.33363C2.4989 10.827 4.42973 12.792 6.9439 13.6645C6.76224 14.0806 6.66752 14.5295 6.66557 14.9836L6.52557 15.012C5.92807 15.0945 5.54557 15.0203 5.28557 14.9103C4.65223 14.642 4.32557 13.9661 3.92723 13.4495C3.6789 13.1286 3.31723 12.7278 2.76223 12.5428C2.65838 12.5082 2.54873 12.4944 2.43955 12.5022C2.33037 12.51 2.22379 12.5392 2.1259 12.5882C1.92821 12.6871 1.77791 12.8606 1.70807 13.0703C1.63823 13.28 1.65457 13.5089 1.75349 13.7066C1.85242 13.9043 2.02582 14.0546 2.23557 14.1245C2.70057 14.2795 3.02223 15.0761 3.31723 15.4295C3.62807 15.8028 4.0414 16.1928 4.6339 16.4445C5.20223 16.6861 5.86973 16.772 6.66557 16.6745V17.5003C6.66557 17.7213 6.75336 17.9333 6.90964 18.0896C7.06592 18.2458 7.27789 18.3336 7.4989 18.3336C7.71991 18.3336 7.93187 18.2458 8.08815 18.0896C8.24443 17.9333 8.33223 17.7213 8.33223 17.5003V15.0003C8.33223 14.522 8.53223 14.092 8.8564 13.787C9.36223 13.3103 9.1039 12.4803 8.4439 12.3486C5.8064 11.8228 4.16557 10.0953 4.16557 8.33363C4.16557 7.5353 4.4864 6.76613 5.0889 6.09696C5.32473 5.8353 5.3864 5.46696 5.2614 5.14696Z" fill="#8E98A9"/>
</g>
</g>
</svg>
