<svg width="36" height="36" viewBox="0 0 36 36" fill="none" xmlns="http://www.w3.org/2000/svg">
<path fill-rule="evenodd" clip-rule="evenodd" d="M17.5 0C12.8587 6.91606e-08 8.40752 1.84374 5.12563 5.12563C1.84374 8.40752 0 12.8587 0 17.5C0 22.1413 1.84374 26.5925 5.12563 29.8744C8.40752 33.1563 12.8587 35 17.5 35H26.25C28.9683 35 30.3275 35 31.3989 34.5567C32.1068 34.2635 32.7501 33.8337 33.2919 33.2919C33.8337 32.7501 34.2635 32.1068 34.5567 31.3989C35 30.3275 35 28.9683 35 26.25V17.5C35 12.8587 33.1563 8.40752 29.8744 5.12563C26.5925 1.84374 22.1413 0 17.5 0ZM9.72222 15.5556C9.72222 15.0399 9.92708 14.5453 10.2917 14.1806C10.6564 13.816 11.151 13.6111 11.6667 13.6111H23.3333C23.849 13.6111 24.3436 13.816 24.7083 14.1806C25.0729 14.5453 25.2778 15.0399 25.2778 15.5556C25.2778 16.0713 25.0729 16.5658 24.7083 16.9305C24.3436 17.2951 23.849 17.5 23.3333 17.5H11.6667C11.151 17.5 10.6564 17.2951 10.2917 16.9305C9.92708 16.5658 9.72222 16.0713 9.72222 15.5556ZM15.5556 23.3333C15.5556 22.8176 15.7604 22.3231 16.1251 21.9584C16.4897 21.5937 16.9843 21.3889 17.5 21.3889H23.3333C23.849 21.3889 24.3436 21.5937 24.7083 21.9584C25.0729 22.3231 25.2778 22.8176 25.2778 23.3333C25.2778 23.849 25.0729 24.3436 24.7083 24.7083C24.3436 25.0729 23.849 25.2778 23.3333 25.2778H17.5C16.9843 25.2778 16.4897 25.0729 16.1251 24.7083C15.7604 24.3436 15.5556 23.849 15.5556 23.3333Z" fill="#1D3152"/>
</svg>
