<svg width="22" height="22" viewBox="0 0 22 22" fill="none" xmlns="http://www.w3.org/2000/svg">
<g id="lets-icons:chat-fill">
<path id="Vector" fill-rule="evenodd" clip-rule="evenodd" d="M10.5938 2C8.31455 2 6.12869 2.90541 4.51705 4.51705C2.90541 6.12869 2 8.31455 2 10.5938C2 12.873 2.90541 15.0588 4.51705 16.6704C6.12869 18.2821 8.31455 19.1875 10.5938 19.1875H14.8906C16.2255 19.1875 16.893 19.1875 17.4191 18.9698C17.7668 18.8258 18.0826 18.6148 18.3487 18.3487C18.6148 18.0826 18.8258 17.7668 18.9698 17.4191C19.1875 16.893 19.1875 16.2255 19.1875 14.8906V10.5938C19.1875 8.31455 18.2821 6.12869 16.6704 4.51705C15.0588 2.90541 12.873 2 10.5938 2ZM6.77431 9.63889C6.77431 9.38564 6.87491 9.14277 7.05398 8.9637C7.23305 8.78463 7.47592 8.68403 7.72917 8.68403H13.4583C13.7116 8.68403 13.9545 8.78463 14.1335 8.9637C14.3126 9.14277 14.4132 9.38564 14.4132 9.63889C14.4132 9.89213 14.3126 10.135 14.1335 10.3141C13.9545 10.4931 13.7116 10.5938 13.4583 10.5938H7.72917C7.47592 10.5938 7.23305 10.4931 7.05398 10.3141C6.87491 10.135 6.77431 9.89213 6.77431 9.63889ZM9.63889 13.4583C9.63889 13.2051 9.73949 12.9622 9.91856 12.7831C10.0976 12.6041 10.3405 12.5035 10.5938 12.5035H13.4583C13.7116 12.5035 13.9545 12.6041 14.1335 12.7831C14.3126 12.9622 14.4132 13.2051 14.4132 13.4583C14.4132 13.7116 14.3126 13.9545 14.1335 14.1335C13.9545 14.3126 13.7116 14.4132 13.4583 14.4132H10.5938C10.3405 14.4132 10.0976 14.3126 9.91856 14.1335C9.73949 13.9545 9.63889 13.7116 9.63889 13.4583Z" fill="white"/>
</g>
</svg>
