<svg width="16" height="17" viewBox="0 0 16 17" fill="none" xmlns="http://www.w3.org/2000/svg">
<g id="lets-icons:chat">
<g id="Group">
<path id="Vector" d="M2 8.66666C2 7.03116 2.6497 5.46264 3.80616 4.30617C4.96263 3.1497 6.53113 2.5 8.16662 2.5C9.80211 2.5 11.3706 3.1497 12.5271 4.30617C13.6836 5.46264 14.3332 7.03116 14.3332 8.66666V12.5902C14.3332 13.2439 14.3332 13.5691 14.2361 13.8305C14.1589 14.0375 14.038 14.2256 13.8818 14.3818C13.7255 14.5381 13.5375 14.659 13.3304 14.7362C13.0691 14.8333 12.743 14.8333 12.0901 14.8333H8.16662C6.53113 14.8333 4.96263 14.1836 3.80616 13.0271C2.6497 11.8707 2 10.3022 2 8.66666Z" stroke="#8A8888" stroke-width="0.999997"/>
<path id="Vector_2" d="M5.85547 7.89551H10.4804M8.16795 10.9788H10.4804" stroke="#8A8888" stroke-width="0.999997" stroke-linecap="round" stroke-linejoin="round"/>
</g>
</g>
</svg>
