<svg width="36" height="36" viewBox="0 0 36 36" fill="none" xmlns="http://www.w3.org/2000/svg">
<g id="mingcute:close-fill">
<g id="Group">
<path id="Vector" fill-rule="evenodd" clip-rule="evenodd" d="M18.0001 21.183L25.9546 29.1375C26.3767 29.5596 26.9492 29.7967 27.5461 29.7967C28.1431 29.7967 28.7155 29.5596 29.1376 29.1375C29.5597 28.7154 29.7969 28.1429 29.7969 27.546C29.7969 26.9491 29.5597 26.3766 29.1376 25.9545L21.1801 18L29.1361 10.0455C29.345 9.83648 29.5107 9.58839 29.6237 9.31535C29.7368 9.04232 29.7949 8.7497 29.7948 8.4542C29.7948 8.1587 29.7365 7.86611 29.6233 7.59313C29.5102 7.32015 29.3444 7.07213 29.1354 6.86323C28.9264 6.65433 28.6783 6.48864 28.4053 6.37562C28.1322 6.26261 27.8396 6.20447 27.5441 6.20454C27.2486 6.20461 26.956 6.26288 26.683 6.37603C26.4101 6.48918 26.162 6.65498 25.9531 6.86398L18.0001 14.8185L10.0456 6.86398C9.83818 6.64899 9.58999 6.47746 9.31554 6.35942C9.04108 6.24137 8.74587 6.17916 8.44712 6.17642C8.14837 6.17369 7.85206 6.23048 7.57549 6.34348C7.29893 6.45648 7.04763 6.62343 6.83627 6.83459C6.62492 7.04575 6.45773 7.29689 6.34447 7.57335C6.2312 7.84981 6.17414 8.14606 6.17659 8.44481C6.17904 8.74357 6.24097 9.03884 6.35876 9.3134C6.47655 9.58797 6.64784 9.83632 6.86264 10.044L14.8201 18L6.86414 25.956C6.64934 26.1636 6.47805 26.412 6.36026 26.6866C6.24247 26.9611 6.18054 27.2564 6.17809 27.5551C6.17564 27.8539 6.2327 28.1502 6.34597 28.4266C6.45923 28.7031 6.62642 28.9542 6.83777 29.1654C7.04913 29.3765 7.30043 29.5435 7.57699 29.6565C7.85356 29.7695 8.14987 29.8263 8.44862 29.8235C8.74737 29.8208 9.04258 29.7586 9.31704 29.6405C9.59149 29.5225 9.83968 29.351 10.0471 29.136L18.0001 21.183Z" fill="#8E98A9"/>
</g>
</g>
</svg>
