<svg width="48" height="48" viewBox="0 0 48 48" fill="none" xmlns="http://www.w3.org/2000/svg">
<g id="Group 71">
<circle id="Ellipse 6" cx="24" cy="24" r="23.4" fill="white" stroke="#8E98A9" stroke-width="1.2"/>
<circle id="Ellipse 7" cx="24.0016" cy="15.9996" r="5.8" stroke="#8E98A9" stroke-width="1.2"/>
<g id="Intersect">
<mask id="path-3-inside-1_270_799" fill="white">
<path fill-rule="evenodd" clip-rule="evenodd" d="M6.80078 40.3064C9.42012 32.8834 16.146 27.6016 24.0299 27.6016C31.9155 27.6016 38.6426 32.8856 41.2607 40.3111C40.9521 40.6292 40.6347 40.9389 40.3089 41.2396C37.9853 33.9713 31.5325 28.8016 24.0299 28.8016C16.5289 28.8016 10.0771 33.9692 7.75234 41.2352C7.42667 40.9343 7.10936 40.6246 6.80078 40.3064Z"/>
</mask>
<path fill-rule="evenodd" clip-rule="evenodd" d="M6.80078 40.3064C9.42012 32.8834 16.146 27.6016 24.0299 27.6016C31.9155 27.6016 38.6426 32.8856 41.2607 40.3111C40.9521 40.6292 40.6347 40.9389 40.3089 41.2396C37.9853 33.9713 31.5325 28.8016 24.0299 28.8016C16.5289 28.8016 10.0771 33.9692 7.75234 41.2352C7.42667 40.9343 7.10936 40.6246 6.80078 40.3064Z" fill="#EDF0F5"/>
<path d="M6.80078 40.3064L5.66917 39.907L5.42182 40.608L5.93925 41.1417L6.80078 40.3064ZM41.2607 40.3111L42.122 41.1466L42.6396 40.6131L42.3924 39.912L41.2607 40.3111ZM40.3089 41.2396L39.1659 41.605L39.7393 43.3987L41.1229 42.1213L40.3089 41.2396ZM24.0299 28.8016V27.6016V28.8016ZM7.75234 41.2352L6.93809 42.1166L8.32139 43.3945L8.89526 41.6009L7.75234 41.2352ZM24.0299 26.4016C15.5829 26.4016 8.43902 32.0575 5.66917 39.907L7.93239 40.7057C10.4012 33.7092 16.7091 28.8016 24.0299 28.8016V26.4016ZM42.3924 39.912C39.6238 32.0599 32.4788 26.4016 24.0299 26.4016V28.8016C31.3523 28.8016 37.6613 33.7113 40.129 40.7101L42.3924 39.912ZM40.3994 39.4755C40.1061 39.7779 39.8045 40.0721 39.4949 40.3579L41.1229 42.1213C41.4649 41.8056 41.798 41.4806 42.122 41.1466L40.3994 39.4755ZM41.4519 40.8742C38.9869 33.1633 32.1096 27.6016 24.0299 27.6016V30.0016C30.9554 30.0016 36.9838 34.7793 39.1659 41.605L41.4519 40.8742ZM24.0299 27.6016C15.9519 27.6016 9.07578 33.161 6.60941 40.8695L8.89526 41.6009C11.0785 34.7774 17.1058 30.0016 24.0299 30.0016V27.6016ZM8.56658 40.3537C8.2571 40.0678 7.95556 39.7735 7.66231 39.471L5.93925 41.1417C6.26316 41.4757 6.59624 41.8009 6.93809 42.1166L8.56658 40.3537Z" fill="#8E98A9" mask="url(#path-3-inside-1_270_799)"/>
</g>
</g>
</svg>
