<svg width="22" height="22" viewBox="0 0 22 22" fill="none" xmlns="http://www.w3.org/2000/svg">
<g id="ant-design:github-filled">
<path id="Vector" d="M10.9914 1.63928C5.67832 1.63713 1.375 5.93831 1.375 11.2471C1.375 15.4451 4.06699 19.0137 7.81602 20.3242C8.3209 20.451 8.24356 20.0922 8.24356 19.8473V18.1823C5.32813 18.5239 5.20996 16.5946 5.01445 16.2723C4.61914 15.5977 3.68457 15.4258 3.96387 15.1035C4.62773 14.7619 5.30449 15.1895 6.08867 16.3475C6.65586 17.1875 7.7623 17.0457 8.32305 16.9061C8.44551 16.4012 8.70762 15.95 9.06855 15.5998C6.04785 15.0584 4.78887 13.2151 4.78887 11.0237C4.78887 9.96018 5.13906 8.98264 5.82656 8.19417C5.38828 6.89436 5.86738 5.78147 5.93184 5.61604C7.18008 5.50432 8.47773 6.50979 8.57871 6.58928C9.28769 6.39807 10.0977 6.2971 11.0043 6.2971C11.9152 6.2971 12.7273 6.40237 13.4428 6.59573C13.6855 6.41096 14.8887 5.54729 16.0488 5.65256C16.1111 5.81799 16.5795 6.9051 16.167 8.18772C16.8631 8.97835 17.2176 9.96448 17.2176 11.0301C17.2176 13.2258 15.95 15.0713 12.9207 15.6041C13.1802 15.8593 13.3862 16.1636 13.5267 16.4993C13.6673 16.835 13.7395 17.1953 13.7393 17.5592V19.9762C13.7564 20.1696 13.7393 20.3608 14.0615 20.3608C17.8664 19.0781 20.6057 15.4838 20.6057 11.2492C20.6057 5.93831 16.3002 1.63928 10.9914 1.63928Z" fill="white"/>
</g>
</svg>
