<svg width="38" height="38" viewBox="0 0 38 38" fill="none" xmlns="http://www.w3.org/2000/svg">
<circle cx="19" cy="19" r="18.525" fill="white" stroke="#8E98A9" stroke-width="0.95"/>
<circle cx="19" cy="12.6666" r="4.59167" stroke="#8E98A9" stroke-width="0.95"/>
<mask id="path-3-inside-1_390_570" fill="white">
<path fill-rule="evenodd" clip-rule="evenodd" d="M5.3833 31.9098C7.45648 26.0323 12.7816 21.85 19.0237 21.85C25.2658 21.85 30.5909 26.0323 32.6641 31.9098C32.4198 32.1618 32.1685 32.4069 31.9107 32.645C30.0707 26.8919 24.9626 22.8 19.0237 22.8C13.0848 22.8 7.97669 26.8918 6.13671 32.645C5.87886 32.4069 5.62762 32.1617 5.3833 31.9098Z"/>
</mask>
<path fill-rule="evenodd" clip-rule="evenodd" d="M5.3833 31.9098C7.45648 26.0323 12.7816 21.85 19.0237 21.85C25.2658 21.85 30.5909 26.0323 32.6641 31.9098C32.4198 32.1618 32.1685 32.4069 31.9107 32.645C30.0707 26.8919 24.9626 22.8 19.0237 22.8C13.0848 22.8 7.97669 26.8918 6.13671 32.645C5.87886 32.4069 5.62762 32.1617 5.3833 31.9098Z" fill="#8E98A9"/>
<path d="M19.0237 21.85V20.9V21.85ZM5.3833 31.9098L4.4874 31.5938L4.29165 32.1487L4.70134 32.5712L5.3833 31.9098ZM32.6641 31.9098L33.346 32.5712L33.7557 32.1488L33.56 31.5938L32.6641 31.9098ZM31.9107 32.645L31.0058 32.9344L31.46 34.3544L32.5552 33.343L31.9107 32.645ZM19.0237 22.8V21.85V22.8ZM6.13671 32.645L5.49219 33.3429L6.58743 34.3543L7.04156 32.9344L6.13671 32.645ZM19.0237 20.9C12.3357 20.9 6.67971 25.3786 4.4874 31.5938L6.2792 32.2258C8.23326 26.686 13.2274 22.8 19.0237 22.8V20.9ZM33.56 31.5938C31.3677 25.3786 25.7116 20.9 19.0237 20.9V22.8C24.82 22.8 29.8141 26.6861 31.7682 32.2258L33.56 31.5938ZM31.9821 31.2484C31.7499 31.4878 31.5112 31.7208 31.2662 31.9471L32.5552 33.343C32.8259 33.093 33.0896 32.8357 33.346 32.5712L31.9821 31.2484ZM32.8155 32.3557C30.8635 26.2521 25.4194 21.85 19.0237 21.85V23.75C24.5058 23.75 29.2779 27.5316 31.0058 32.9344L32.8155 32.3557ZM19.0237 21.85C12.628 21.85 7.1839 26.2521 5.23186 32.3556L7.04156 32.9344C8.76949 27.5316 13.5415 23.75 19.0237 23.75V21.85ZM6.78123 31.9471C6.53619 31.7208 6.29744 31.4878 6.06526 31.2484L4.70134 32.5712C4.95781 32.8356 5.22153 33.093 5.49219 33.3429L6.78123 31.9471Z" fill="#8E98A9" mask="url(#path-3-inside-1_390_570)"/>
</svg>
