<svg width="32" height="32" viewBox="0 0 32 32" fill="none" xmlns="http://www.w3.org/2000/svg">
<path fill-rule="evenodd" clip-rule="evenodd" d="M14.0003 2.66602C12.1931 2.66617 10.4122 3.0985 8.80601 3.92694C7.19987 4.75538 5.81513 5.9559 4.76732 7.42835C3.71951 8.9008 3.03902 10.6025 2.78262 12.3914C2.52621 14.1803 2.70134 16.0046 3.29338 17.7121C3.88541 19.4196 4.8772 20.9608 6.18599 22.207C7.49477 23.4532 9.08261 24.3684 10.817 24.8761C12.5514 25.3839 14.3821 25.4695 16.1564 25.1259C17.9306 24.7823 19.5969 24.0193 21.0163 22.9007L25.8857 27.77C26.1371 28.0129 26.4739 28.1473 26.8235 28.1442C27.1731 28.1412 27.5076 28.001 27.7548 27.7538C28.002 27.5066 28.1422 27.1721 28.1452 26.8225C28.1483 26.473 28.0139 26.1362 27.771 25.8847L22.9017 21.0153C24.219 19.3442 25.0392 17.3359 25.2685 15.2203C25.4977 13.1047 25.1267 10.9674 24.198 9.05281C23.2692 7.13824 21.8202 5.52382 20.0167 4.39432C18.2133 3.26482 16.1283 2.66587 14.0003 2.66602ZM5.33367 13.9993C5.33367 11.7008 6.24676 9.4964 7.87208 7.87109C9.49739 6.24577 11.7018 5.33268 14.0003 5.33268C16.2989 5.33268 18.5033 6.24577 20.1286 7.87109C21.7539 9.4964 22.667 11.7008 22.667 13.9993C22.667 16.2979 21.7539 18.5023 20.1286 20.1276C18.5033 21.7529 16.2989 22.666 14.0003 22.666C11.7018 22.666 9.49739 21.7529 7.87208 20.1276C6.24676 18.5023 5.33367 16.2979 5.33367 13.9993Z" fill="#1D3152"/>
</svg>
