<svg width="16" height="16" viewBox="0 0 16 16" fill="none" xmlns="http://www.w3.org/2000/svg">
<path d="M2 8.16666C2 6.53116 2.6497 4.96264 3.80616 3.80617C4.96263 2.6497 6.53113 2 8.16662 2C9.80211 2 11.3706 2.6497 12.5271 3.80617C13.6836 4.96264 14.3332 6.53116 14.3332 8.16666V12.0902C14.3332 12.7439 14.3332 13.0691 14.2361 13.3305C14.1589 13.5375 14.038 13.7256 13.8818 13.8818C13.7255 14.0381 13.5375 14.159 13.3304 14.2362C13.0691 14.3333 12.743 14.3333 12.0901 14.3333H8.16662C6.53113 14.3333 4.96263 13.6836 3.80616 12.5271C2.6497 11.3707 2 9.80216 2 8.16666Z" stroke="#8A8888" stroke-width="0.999997"/>
<path d="M5.85547 7.39648H10.4804M8.16795 10.4798H10.4804" stroke="#8A8888" stroke-width="0.999997" stroke-linecap="round" stroke-linejoin="round"/>
</svg>
