<svg width="16" height="17" viewBox="0 0 16 17" fill="none" xmlns="http://www.w3.org/2000/svg">
<g id="lets-icons:view-light" clip-path="url(#clip0_390_1252)">
<g id="Group">
<path id="Vector" d="M7.97524 11.7493C9.58607 11.7493 10.8919 10.4435 10.8919 8.83268C10.8919 7.22185 9.58607 5.91602 7.97524 5.91602C6.36442 5.91602 5.05859 7.22185 5.05859 8.83268C5.05859 10.4435 6.36442 11.7493 7.97524 11.7493Z" stroke="#8A8888" stroke-width="0.999997"/>
<path id="Vector_2" d="M14.7996 7.94467C15.1229 8.33801 15.2846 8.53384 15.2846 8.83301C15.2846 9.13217 15.1229 9.32801 14.7996 9.72134C13.6162 11.158 11.0062 13.833 7.97626 13.833C4.94628 13.833 2.33629 11.158 1.15297 9.72134C0.829635 9.32801 0.667969 9.13217 0.667969 8.83301C0.667969 8.53384 0.829635 8.33801 1.15297 7.94467C2.33629 6.50801 4.94628 3.83301 7.97626 3.83301C11.0062 3.83301 13.6162 6.50801 14.7996 7.94467Z" stroke="#8A8888" stroke-width="0.999997"/>
</g>
</g>
<defs>
<clipPath id="clip0_390_1252">
<rect width="15.9999" height="16" fill="white" transform="translate(0 0.5)"/>
</clipPath>
</defs>
</svg>