<svg width="16" height="16" viewBox="0 0 16 16" fill="none" xmlns="http://www.w3.org/2000/svg">
<g clip-path="url(#clip0_396_3214)">
<path d="M7.97524 11.2513C9.58607 11.2513 10.8919 9.94547 10.8919 8.33464C10.8919 6.7238 9.58607 5.41797 7.97524 5.41797C6.36442 5.41797 5.05859 6.7238 5.05859 8.33464C5.05859 9.94547 6.36442 11.2513 7.97524 11.2513Z" stroke="#8A8888" stroke-width="0.999997"/>
<path d="M14.7996 7.44565C15.1229 7.83898 15.2846 8.03482 15.2846 8.33398C15.2846 8.63315 15.1229 8.82898 14.7996 9.22232C13.6162 10.659 11.0062 13.334 7.97626 13.334C4.94628 13.334 2.33629 10.659 1.15297 9.22232C0.829635 8.82898 0.667969 8.63315 0.667969 8.33398C0.667969 8.03482 0.829635 7.83898 1.15297 7.44565C2.33629 6.00898 4.94628 3.33398 7.97626 3.33398C11.0062 3.33398 13.6162 6.00898 14.7996 7.44565Z" stroke="#8A8888" stroke-width="0.999997"/>
</g>
<defs>
<clipPath id="clip0_396_3214">
<rect width="15.9999" height="16" fill="white"/>
</clipPath>
</defs>
</svg>
