<svg width="32" height="32" viewBox="0 0 32 32" fill="none" xmlns="http://www.w3.org/2000/svg">
<path fill-rule="evenodd" clip-rule="evenodd" d="M14.0003 2.66699C12.1931 2.66715 10.4122 3.09948 8.80601 3.92792C7.19987 4.75636 5.81513 5.95688 4.76732 7.42933C3.71951 8.90178 3.03902 10.6035 2.78262 12.3924C2.52621 14.1813 2.70134 16.0056 3.29338 17.7131C3.88541 19.4206 4.8772 20.9617 6.18599 22.208C7.49477 23.4542 9.08261 24.3694 10.817 24.8771C12.5514 25.3849 14.3821 25.4705 16.1564 25.1269C17.9306 24.7832 19.5969 24.0203 21.0163 22.9017L25.8857 27.771C26.1371 28.0139 26.4739 28.1483 26.8235 28.1452C27.1731 28.1422 27.5076 28.002 27.7548 27.7547C28.002 27.5075 28.1422 27.1731 28.1452 26.8235C28.1483 26.4739 28.0139 26.1371 27.771 25.8857L22.9017 21.0163C24.219 19.3451 25.0392 17.3369 25.2685 15.2213C25.4977 13.1057 25.1267 10.9684 24.198 9.05378C23.2692 7.13921 21.8202 5.5248 20.0167 4.3953C18.2133 3.2658 16.1283 2.66685 14.0003 2.66699ZM5.33367 14.0003C5.33367 11.7018 6.24676 9.49738 7.87208 7.87207C9.49739 6.24675 11.7018 5.33366 14.0003 5.33366C16.2989 5.33366 18.5033 6.24675 20.1286 7.87207C21.7539 9.49738 22.667 11.7018 22.667 14.0003C22.667 16.2989 21.7539 18.5033 20.1286 20.1286C18.5033 21.7539 16.2989 22.667 14.0003 22.667C11.7018 22.667 9.49739 21.7539 7.87208 20.1286C6.24676 18.5033 5.33367 16.2989 5.33367 14.0003Z" fill="#1D3152"/>
</svg>
