<svg width="13" height="12" viewBox="0 0 13 12" fill="current" xmlns="http://www.w3.org/2000/svg">
<path d="M9.64062 6.73174C9.2365 6.73174 8.90889 6.40413 8.90889 6C8.90889 5.59587 9.2365 5.26826 9.64062 5.26826V6.73174ZM10.1581 5.48258C10.4439 5.76834 10.4439 6.23166 10.1581 6.51742L5.50139 11.1742C5.21563 11.4599 4.75232 11.4599 4.46656 11.1742C4.1808 10.8884 4.1808 10.4251 4.46656 10.1393L8.60589 6L4.46656 1.86067C4.1808 1.5749 4.1808 1.11159 4.46656 0.825832C4.75232 0.540071 5.21563 0.540071 5.50139 0.825832L10.1581 5.48258ZM9.64062 5.26826H9.64072V6.73174H9.64062V5.26826Z" fill="current"/>
</svg>
