<svg width="12" height="12" viewBox="0 0 12 12" fill="current" xmlns="http://www.w3.org/2000/svg">
<path d="M2.85938 6.73174C3.2635 6.73174 3.59111 6.40413 3.59111 6C3.59111 5.59587 3.2635 5.26826 2.85938 5.26826V6.73174ZM2.34186 5.48258C2.0561 5.76834 2.0561 6.23166 2.34186 6.51742L6.99861 11.1742C7.28437 11.4599 7.74768 11.4599 8.03344 11.1742C8.3192 10.8884 8.3192 10.4251 8.03344 10.1393L3.89411 6L8.03344 1.86067C8.3192 1.5749 8.3192 1.11159 8.03344 0.825832C7.74768 0.540071 7.28437 0.540071 6.99861 0.825832L2.34186 5.48258ZM2.85938 5.26826H2.85928V6.73174H2.85938V5.26826Z" fill="current"/>
</svg>
