<svg width="45" height="45" viewBox="0 0 45 45" fill="none" xmlns="http://www.w3.org/2000/svg">
<path fill-rule="evenodd" clip-rule="evenodd" d="M23.0999 5.60004C18.4586 5.60004 14.0074 7.44378 10.7255 10.7257C7.44364 14.0076 5.5999 18.4587 5.5999 23.1C5.5999 27.7413 7.44364 32.1925 10.7255 35.4744C14.0074 38.7563 18.4586 40.6 23.0999 40.6H31.8499C34.5682 40.6 35.9274 40.6 36.9988 40.1567C37.7067 39.8635 38.35 39.4338 38.8918 38.892C39.4336 38.3501 39.8634 37.7069 40.1566 36.9989C40.5999 35.9275 40.5999 34.5684 40.5999 31.85V23.1C40.5999 18.4587 38.7562 14.0076 35.4743 10.7257C32.1924 7.44378 27.7412 5.60004 23.0999 5.60004ZM15.3221 21.1556C15.3221 20.6399 15.527 20.1453 15.8916 19.7807C16.2563 19.416 16.7509 19.2111 17.2666 19.2111H28.9332C29.4489 19.2111 29.9435 19.416 30.3082 19.7807C30.6728 20.1453 30.8777 20.6399 30.8777 21.1556C30.8777 21.6713 30.6728 22.1659 30.3082 22.5305C29.9435 22.8952 29.4489 23.1 28.9332 23.1H17.2666C16.7509 23.1 16.2563 22.8952 15.8916 22.5305C15.527 22.1659 15.3221 21.6713 15.3221 21.1556ZM21.1555 28.9334C21.1555 28.4177 21.3603 27.9231 21.725 27.5584C22.0896 27.1938 22.5842 26.9889 23.0999 26.9889H28.9332C29.4489 26.9889 29.9435 27.1938 30.3082 27.5584C30.6728 27.9231 30.8777 28.4177 30.8777 28.9334C30.8777 29.4491 30.6728 29.9436 30.3082 30.3083C29.9435 30.673 29.4489 30.8778 28.9332 30.8778H23.0999C22.5842 30.8778 22.0896 30.673 21.725 30.3083C21.3603 29.9436 21.1555 29.4491 21.1555 28.9334Z" fill="#121212"/>
</svg>
